# xmcd
#
# Track frame offsets:
#	150
#	13979
#	43611
#
# Disc length: 1034 seconds
#
# Revision: 1
# Processed by: cddbd v1.5.2PL0 Copyright (c) Steve Scherf et al.
# Submitted via: audiograbber 1.83.01
#
DISCID=1f040803
DTITLE=TV-Freak feat. J.R. - Dallas Theme (Maxi)
DYEAR=2003
DGENRE=Pop
TTITLE0=Dallas Theme (Radio edit)
TTITLE1=Dallas Theme (Club Mix)
TTITLE2=Dallas Theme (Extended Mix)
EXTD=
EXTT0=
EXTT1=
EXTT2=
PLAYORDER=
